<?xml version="1.0" encoding="utf-8"?>
<!-- Generator: Adobe Illustrator 26.5.0, SVG Export Plug-In . SVG Version: 6.00 Build 0)  -->
<svg version="1.1" id="Layer_1" xmlns="http://www.w3.org/2000/svg" xmlns:xlink="http://www.w3.org/1999/xlink" x="0px" y="0px"
	 viewBox="0 0 55.1 55.2" style="enable-background:new 0 0 55.1 55.2;" xml:space="preserve">
<style type="text/css">
	.st0{fill:#E88F2A;}
	.st1{fill:none;stroke:#FFFFFF;stroke-miterlimit:10;}
	.st2{fill:#FEFEFE;}
</style>
<g>
	<rect class="st0" width="55.1" height="55.2"/>
	<rect x="3" y="3" class="st1" width="49.1" height="49.1"/>
</g>
<g>
	<path class="st2" d="M42.8,42.2c-1.5-2.7-3-5.4-4.6-8c-0.2-0.3-0.1-0.5,0.1-0.7c3.7-3.7,5.4-8.2,4.6-13.4c-0.8-5.6-3.9-9.7-9-12.1
		c-0.8-0.4-1.6-0.7-2.4-0.9c-0.7-0.2-1.2,0.3-1.1,1c0.1,0.4,0.4,0.6,0.8,0.7c7.6,2,12,10.1,9.7,17.6c-2.7,8.5-12.5,12.4-20.3,7.9
		c-7.8-4.5-9.3-15.2-3.1-21.7c1.8-1.9,4-3.2,6.5-3.9c0.6-0.2,0.9-0.6,0.7-1.1c-0.1-0.5-0.6-0.7-1.2-0.5c-6.2,1.7-10.8,7-11.5,13.3
		c-0.5,5.1,1.1,9.5,4.8,13.1c0.2,0.2,0.2,0.3,0.1,0.6c-1.6,2.8-3.1,5.5-4.7,8.3c-0.2,0.3-0.3,0.7,0,1c0.2,0.3,0.6,0.4,1,0.3
		c1.7-0.4,3.4-0.7,5.1-1.1c0.3-0.1,0.4,0,0.5,0.3c0.6,1.7,1.2,3.3,1.8,5c0.1,0.3,0.3,0.6,0.6,0.8h0.5c0.4-0.1,0.6-0.4,0.7-0.7
		c1.5-2.7,3-5.3,4.5-8c0.2-0.3,0.4-0.7,0.6-1c0.2,0.1,0.2,0.2,0.3,0.3c0.7,1.3,1.4,2.5,2.1,3.8c0.9,1.6,1.9,3.3,2.8,4.9
		c0.2,0.3,0.4,0.6,0.7,0.7H34c0.3-0.2,0.5-0.5,0.6-0.8c0.6-1.7,1.2-3.3,1.7-4.9c0.1-0.3,0.2-0.4,0.5-0.3c1.7,0.4,3.5,0.7,5.2,1.1
		c0.3,0.1,0.7,0,0.9-0.3c0.2-0.3,0.2-0.6,0.1-0.9C42.9,42.4,42.9,42.3,42.8,42.2L42.8,42.2z M21.6,45.8c-0.2-0.6-0.4-1.2-0.6-1.8
		c-0.3-0.9-0.6-1.7-0.9-2.6c-0.2-0.6-0.5-0.8-1.1-0.6c-1.3,0.3-2.6,0.5-4,0.8c-0.1,0-0.2,0-0.4,0c0.9-1.6,1.8-3.2,2.7-4.7
		c0.4-0.6,0.7-1.3,1.1-1.9c0.1-0.2,0.2-0.2,0.4-0.1c2.2,1.6,4.8,2.5,7.5,2.8C26,38,22.1,45.1,21.6,45.8z M36.3,40.8
		c-0.6-0.1-0.9,0-1.2,0.7c-0.5,1.3-0.9,2.6-1.4,3.9c0,0.1-0.1,0.2-0.2,0.4c-1.5-2.7-3.1-5.4-4.6-8.1c1.2-0.1,2.3-0.3,3.4-0.7
		c1.5-0.5,2.8-1.2,4.1-2c0.1-0.1,0.2-0.2,0.4,0c1.2,2.2,2.5,4.4,3.8,6.7C39.1,41.4,37.7,41.1,36.3,40.8L36.3,40.8z"/>
	<path class="st2" d="M15.2,22.2c0,6.8,5.5,12.3,12.3,12.3S39.9,29,39.9,22.2S34.3,9.9,27.6,9.9S15.2,15.4,15.2,22.2z M38.2,22.2
		c0,5.9-4.8,10.7-10.7,10.6c-5.9,0-10.6-4.8-10.6-10.7c0-5.9,4.8-10.7,10.7-10.6C33.5,11.5,38.3,16.3,38.2,22.2z"/>
	<path class="st2" d="M27.5,8.2c0.5,0,0.8-0.4,0.8-0.8c0-0.4-0.4-0.8-0.8-0.8c-0.5,0-0.8,0.4-0.8,0.8C26.7,7.8,27.1,8.2,27.5,8.2z"
		/>
	<path class="st2" d="M19.8,19.9c-0.1,0.4,0,0.7,0.3,1c0.8,0.8,1.6,1.7,2.5,2.4c0.5,0.4,0.6,0.8,0.4,1.4c-0.2,1.2-0.4,2.4-0.6,3.6
		c0,0.7,0.6,1.1,1.3,0.7c1.2-0.6,2.4-1.2,3.6-1.9c0.2-0.1,0.4-0.1,0.6,0c1.2,0.6,2.4,1.2,3.6,1.9c0.3,0.2,0.6,0.2,0.9,0
		c0.3-0.2,0.4-0.5,0.3-0.8c-0.2-1.4-0.5-2.7-0.7-4c0-0.2,0-0.4,0.2-0.5c1-0.9,1.9-1.9,2.9-2.8c0.3-0.3,0.4-0.6,0.3-1
		c-0.1-0.4-0.4-0.5-0.8-0.6c-1.3-0.2-2.6-0.4-3.9-0.6c-0.3,0-0.5-0.2-0.6-0.4c-0.6-1.2-1.1-2.3-1.7-3.5c-0.2-0.3-0.4-0.6-0.8-0.6
		c-0.4,0-0.7,0.2-0.8,0.6c-0.6,1.2-1.2,2.3-1.8,3.5c-0.1,0.2-0.3,0.4-0.5,0.4c-1.3,0.2-2.6,0.4-3.9,0.6
		C20.2,19.4,19.9,19.5,19.8,19.9z M24.4,20.4c1.8-0.3,1.4,0,2.2-1.6c0.3-0.6,0.6-1.2,0.9-1.8c0,0,0,0,0.1-0.1
		c0.4,0.9,0.9,1.7,1.2,2.5c0.3,0.6,0.7,0.9,1.3,0.9c0.8,0.1,1.6,0.2,2.4,0.4c0.1,0,0.2,0,0.2,0c-0.7,0.7-1.4,1.4-2,2.1
		c-0.3,0.3-0.5,0.6-0.4,1.1c0.2,1,0.3,1.9,0.5,2.9c-0.2,0-0.3-0.1-0.5-0.2c-0.7-0.4-1.5-0.8-2.2-1.1c-0.4-0.2-0.8-0.2-1.2,0
		c-0.9,0.5-1.7,0.9-2.7,1.4c0.1-0.7,0.2-1.4,0.3-2c0-0.1,0-0.2,0.1-0.3c0.4-0.9,0-1.6-0.7-2.2c-0.6-0.5-1-1.1-1.6-1.6
		C23,20.6,23.7,20.5,24.4,20.4L24.4,20.4z"/>
</g>
</svg>
